<?xml version="1.0" standalone="no"?>
<!DOCTYPE svg PUBLIC "-//W3C//DTD SVG 20010904//EN"
 "http://www.w3.org/TR/2001/REC-SVG-20010904/DTD/svg10.dtd">
<svg version="1.0" xmlns="http://www.w3.org/2000/svg"
 width="512.000000pt" height="512.000000pt" viewBox="0 0 512.000000 512.000000"
 preserveAspectRatio="xMidYMid meet">

<g transform="translate(0.000000,512.000000) scale(0.100000,-0.100000)"
fill="#fff" stroke="none">
<path d="M465 5108 c-163 -31 -332 -164 -405 -320 -110 -236 -62 -493 128
-675 63 -61 184 -124 270 -142 75 -15 4129 -15 4204 0 86 18 207 81 270 142
244 234 250 597 14 834 -58 58 -92 82 -158 112 -45 22 -110 44 -142 50 -77 14
-4107 13 -4181 -1z"/>
<path d="M432 3120 c-371 -98 -546 -531 -347 -860 70 -115 194 -213 320 -253
l70 -22 2085 0 2085 0 70 22 c172 54 314 195 376 373 19 53 23 86 23 180 0 94
-4 127 -23 180 -61 175 -200 315 -370 373 l-66 22 -2075 2 c-2018 2 -2077 1
-2148 -17z"/>
<path d="M442 1146 c-238 -58 -417 -271 -439 -521 -19 -231 117 -466 329 -564
45 -22 110 -44 142 -50 84 -15 4088 -15 4172 0 170 31 336 159 413 318 112
233 63 496 -127 678 -63 61 -184 124 -270 142 -83 17 -4149 14 -4220 -3z"/>
</g>
</svg>
