<?xml version="1.0" encoding="utf-8"?>
<!-- Generator: Adobe Illustrator 26.3.1, SVG Export Plug-In . SVG Version: 6.00 Build 0)  -->
<svg version="1.1" id="Camada_1" xmlns="http://www.w3.org/2000/svg" xmlns:xlink="http://www.w3.org/1999/xlink" x="0px" y="0px"
	 viewBox="0 0 100 100" style="enable-background:new 0 0 100 100;" xml:space="preserve">
<style type="text/css">
	.st0{fill:#D0BDDD;}
</style>
<g>
	<g>
		<path class="st0" d="M51.57,44.34c-0.15,0.36-0.37,0.67-0.64,0.94c-0.27,0.27-0.58,0.48-0.94,0.64s-0.74,0.23-1.15,0.23h-0.86
			c-0.41,0-0.8-0.08-1.16-0.23s-0.68-0.37-0.95-0.64c-0.27-0.27-0.48-0.58-0.64-0.94C45.08,43.98,45,43.59,45,43.18V36.7
			c0-0.41,0.08-0.79,0.23-1.15c0.15-0.36,0.37-0.67,0.64-0.94c0.27-0.27,0.59-0.48,0.95-0.64c0.36-0.15,0.75-0.23,1.16-0.23h0.86
			c0.41,0,0.79,0.08,1.15,0.23c0.36,0.15,0.67,0.37,0.94,0.64c0.27,0.27,0.48,0.58,0.64,0.94s0.23,0.74,0.23,1.15v6.48
			C51.8,43.59,51.72,43.98,51.57,44.34z M50.71,36.7c0-0.27-0.05-0.52-0.15-0.75c-0.1-0.23-0.24-0.44-0.41-0.61
			s-0.38-0.31-0.61-0.41s-0.48-0.15-0.75-0.15h-0.76c-0.27,0-0.52,0.05-0.75,0.15c-0.23,0.1-0.44,0.24-0.61,0.41
			c-0.18,0.17-0.32,0.38-0.42,0.61c-0.1,0.23-0.15,0.48-0.15,0.75v6.48c0,0.27,0.05,0.52,0.15,0.75c0.1,0.23,0.24,0.44,0.42,0.61
			c0.18,0.18,0.38,0.32,0.61,0.42c0.23,0.1,0.48,0.15,0.75,0.15h0.76c0.27,0,0.52-0.05,0.75-0.15c0.23-0.1,0.44-0.24,0.61-0.42
			c0.17-0.18,0.31-0.38,0.41-0.61c0.1-0.23,0.15-0.48,0.15-0.75V36.7z"/>
		<path class="st0" d="M56.98,43.32l0.03,0.45l0.03-0.45l2.68-9.42h1.12l-3.55,12.07h-0.57L53.18,33.9h1.13L56.98,43.32z"/>
		<path class="st0" d="M62.39,45.98V33.9h6.8v1.04h-5.71v4.49h4.62v1.04h-4.62v4.48h5.71v1.04H62.39z"/>
		<path class="st0" d="M76.93,45.98l-3.28-5.15h-1.49v5.15h-1.09V33.9h3.83c0.41,0,0.79,0.08,1.15,0.23
			c0.36,0.15,0.67,0.37,0.94,0.64c0.27,0.27,0.48,0.59,0.64,0.95c0.15,0.36,0.23,0.75,0.23,1.16v0.98c0,0.41-0.08,0.8-0.23,1.16
			c-0.15,0.36-0.37,0.68-0.64,0.95c-0.27,0.27-0.58,0.48-0.94,0.64c-0.36,0.15-0.74,0.23-1.15,0.23l3.28,5.15H76.93z M76.79,36.88
			c0-0.27-0.05-0.52-0.15-0.75c-0.1-0.23-0.24-0.44-0.41-0.61c-0.17-0.18-0.38-0.32-0.61-0.42c-0.23-0.1-0.48-0.15-0.75-0.15h-2.69
			v4.85h2.69c0.27,0,0.52-0.05,0.75-0.15s0.44-0.24,0.61-0.42c0.17-0.18,0.31-0.38,0.41-0.61c0.1-0.23,0.15-0.48,0.15-0.75V36.88z"
			/>
	</g>
	<g>
		<path class="st0" d="M55.87,60.3c-0.15,0.36-0.37,0.67-0.64,0.94c-0.27,0.27-0.58,0.48-0.94,0.64c-0.36,0.15-0.74,0.23-1.15,0.23
			h-0.86c-0.41,0-0.8-0.08-1.16-0.23c-0.36-0.15-0.68-0.37-0.95-0.64c-0.27-0.27-0.48-0.58-0.64-0.94s-0.23-0.74-0.23-1.15v-6.48
			c0-0.41,0.08-0.79,0.23-1.15s0.37-0.67,0.64-0.94s0.59-0.48,0.95-0.64c0.36-0.15,0.75-0.23,1.16-0.23h0.86
			c0.41,0,0.79,0.08,1.15,0.23s0.67,0.37,0.94,0.64c0.27,0.27,0.48,0.58,0.64,0.94c0.15,0.36,0.23,0.74,0.23,1.15v6.48
			C56.1,59.56,56.02,59.94,55.87,60.3z M55.01,52.66c0-0.27-0.05-0.52-0.15-0.75c-0.1-0.23-0.24-0.44-0.41-0.61
			s-0.38-0.31-0.61-0.41c-0.23-0.1-0.48-0.15-0.75-0.15h-0.76c-0.27,0-0.52,0.05-0.75,0.15c-0.23,0.1-0.44,0.24-0.61,0.41
			s-0.32,0.38-0.42,0.61s-0.15,0.48-0.15,0.75v6.48c0,0.27,0.05,0.52,0.15,0.75s0.24,0.44,0.42,0.61c0.18,0.18,0.38,0.32,0.61,0.42
			c0.23,0.1,0.48,0.15,0.75,0.15h0.76c0.27,0,0.52-0.05,0.75-0.15c0.23-0.1,0.44-0.24,0.61-0.42c0.17-0.18,0.31-0.38,0.41-0.61
			c0.1-0.23,0.15-0.48,0.15-0.75V52.66z"/>
		<path class="st0" d="M65.08,60.3c-0.15,0.36-0.37,0.67-0.64,0.94c-0.27,0.27-0.58,0.48-0.94,0.64c-0.36,0.15-0.74,0.23-1.15,0.23
			h-0.86c-0.41,0-0.8-0.08-1.16-0.23c-0.36-0.15-0.68-0.37-0.95-0.64c-0.27-0.27-0.48-0.58-0.64-0.94
			c-0.15-0.36-0.23-0.74-0.23-1.15v-6.48c0-0.41,0.08-0.79,0.23-1.15c0.15-0.36,0.37-0.67,0.64-0.94s0.59-0.48,0.95-0.64
			s0.75-0.23,1.16-0.23h0.86c0.41,0,0.79,0.08,1.15,0.23s0.67,0.37,0.94,0.64c0.27,0.27,0.48,0.58,0.64,0.94s0.23,0.74,0.23,1.15
			v0.49l-1.09,0.17v-0.66c0-0.27-0.05-0.52-0.15-0.75c-0.1-0.23-0.24-0.44-0.41-0.61s-0.38-0.31-0.61-0.41
			c-0.23-0.1-0.48-0.15-0.75-0.15h-0.76c-0.27,0-0.52,0.05-0.75,0.15c-0.23,0.1-0.44,0.24-0.61,0.41s-0.32,0.38-0.42,0.61
			s-0.15,0.48-0.15,0.75v6.48c0,0.27,0.05,0.52,0.15,0.75s0.24,0.44,0.42,0.61c0.18,0.18,0.38,0.32,0.61,0.42
			c0.23,0.1,0.48,0.15,0.75,0.15h0.76c0.27,0,0.52-0.05,0.75-0.15c0.23-0.1,0.44-0.24,0.61-0.42c0.17-0.18,0.31-0.38,0.41-0.61
			c0.1-0.23,0.15-0.48,0.15-0.75v-0.66l1.09,0.18v0.48C65.31,59.56,65.23,59.94,65.08,60.3z"/>
		<path class="st0" d="M67.73,61.94V49.87h1.09v12.07H67.73z M73.62,61.94l-4.55-6.04l4.55-6.04h1.35l-4.64,6.04l4.64,6.04H73.62z"
			/>
	</g>
	<path class="st0" d="M47.31,64.77c0,0,0.75-0.27,1.69-0.19c0.53,0.05,1.3,0.27,2.12,0.5c1.24,0.36,2.79,0.8,4.16,0.8
		c0.34,0,0.67-0.03,0.96-0.08c0.95-0.18,1.82-0.67,2.6-1.48l-0.66-0.6c-0.64,0.66-1.35,1.06-2.11,1.2
		c-1.37,0.25-3.21-0.27-4.68-0.69c-0.92-0.26-1.7-0.49-2.31-0.54c-1.1-0.1-1.98,0.2-2.07,0.24c-0.2,0.07-0.39,0.15-0.56,0.23
		l-0.26,0.12V49.72H45v16.54l1.22-0.96C46.57,65.07,46.93,64.9,47.31,64.77z"/>
	<path class="st0" d="M21.81,66.27l19.26-0.62c1.62-10.82-6.23-10.69-6.23-15.94c0-4.29,4.93-7.73,4.93-12.02
		c-1.39-0.34-2.97-1.57-5.48-2.13l-0.7-1.65l-3.61,0.05l-0.12,0.44l-0.51,1.63c-1.57,0.62-2.48,1.3-5.83,2.15
		c0,4.19,4.77,5.72,4.77,9.91C28.29,53.43,21.84,52.42,21.81,66.27z"/>
</g>
</svg>
